<svg width="672" height="178" viewBox="0 0 672 178" fill="none" xmlns="http://www.w3.org/2000/svg">
<ellipse cx="76.6847" cy="64" rx="25.2252" ry="25" fill="#FF8A00"/>
<ellipse cx="112" cy="96" rx="50.4505" ry="50" fill="#C4C4C4"/>
<ellipse cx="142.27" cy="64" rx="25.2252" ry="25" fill="#FF8A00"/>
<path d="M81.2252 128L64.1856 98.75L98.2649 98.75L81.2252 128Z" fill="#212121"/>
<path d="M200.443 118.332V118.701C200.443 120.061 200.625 121.332 200.988 122.516C201.352 123.688 201.861 124.707 202.518 125.574C203.174 126.441 203.965 127.121 204.891 127.613C205.828 128.105 206.871 128.352 208.02 128.352C209.191 128.352 210.217 128.152 211.096 127.754C211.975 127.355 212.73 126.77 213.363 125.996L213.504 128H216.492V101H213.24V110.861C212.619 110.135 211.881 109.584 211.025 109.209C210.182 108.822 209.191 108.629 208.055 108.629C206.895 108.629 205.846 108.869 204.908 109.35C203.971 109.83 203.174 110.498 202.518 111.354C201.85 112.209 201.334 113.234 200.971 114.43C200.619 115.613 200.443 116.914 200.443 118.332ZM203.695 118.701V118.332C203.695 117.406 203.795 116.527 203.994 115.695C204.193 114.852 204.504 114.107 204.926 113.463C205.336 112.83 205.863 112.326 206.508 111.951C207.164 111.576 207.949 111.389 208.863 111.389C209.93 111.389 210.82 111.641 211.535 112.145C212.25 112.637 212.818 113.27 213.24 114.043V122.867C212.818 123.699 212.25 124.361 211.535 124.854C210.82 125.346 209.918 125.592 208.828 125.592C207.926 125.592 207.152 125.41 206.508 125.047C205.863 124.672 205.336 124.168 204.926 123.535C204.504 122.902 204.193 122.17 203.994 121.338C203.795 120.506 203.695 119.627 203.695 118.701ZM235.143 108.629C233.76 108.629 232.523 108.934 231.434 109.543C230.355 110.141 229.43 110.961 228.656 112.004L228.639 111.529L228.498 108.98H225.404V128H228.674V115.801C228.885 115.215 229.148 114.688 229.465 114.219C229.793 113.738 230.174 113.334 230.607 113.006C231.088 112.631 231.65 112.35 232.295 112.162C232.939 111.963 233.66 111.863 234.457 111.863C235.078 111.863 235.67 111.898 236.232 111.969C236.807 112.027 237.41 112.127 238.043 112.268L238.482 109.086C238.154 108.945 237.662 108.834 237.006 108.752C236.361 108.67 235.74 108.629 235.143 108.629ZM256.799 128H260.191V127.719C259.98 127.191 259.816 126.576 259.699 125.873C259.582 125.158 259.523 124.484 259.523 123.852V115.01C259.523 113.943 259.33 113.012 258.943 112.215C258.557 111.418 258.029 110.75 257.361 110.211C256.682 109.684 255.879 109.291 254.953 109.033C254.027 108.764 253.025 108.629 251.947 108.629C250.764 108.629 249.703 108.793 248.766 109.121C247.84 109.449 247.055 109.877 246.41 110.404C245.754 110.943 245.25 111.547 244.898 112.215C244.559 112.883 244.383 113.562 244.371 114.254H247.641C247.641 113.855 247.734 113.475 247.922 113.111C248.121 112.736 248.396 112.414 248.748 112.145C249.1 111.875 249.527 111.658 250.031 111.494C250.547 111.33 251.127 111.248 251.771 111.248C252.463 111.248 253.084 111.336 253.635 111.512C254.197 111.688 254.672 111.934 255.059 112.25C255.445 112.578 255.744 112.971 255.955 113.428C256.166 113.885 256.271 114.4 256.271 114.975V116.469H252.721C251.396 116.469 250.195 116.598 249.117 116.855C248.051 117.113 247.137 117.5 246.375 118.016C245.613 118.543 245.021 119.199 244.6 119.984C244.189 120.77 243.984 121.684 243.984 122.727C243.984 123.523 244.137 124.268 244.441 124.959C244.758 125.639 245.203 126.225 245.777 126.717C246.34 127.221 247.025 127.619 247.834 127.912C248.654 128.205 249.568 128.352 250.576 128.352C251.197 128.352 251.783 128.287 252.334 128.158C252.885 128.029 253.406 127.854 253.898 127.631C254.379 127.408 254.818 127.15 255.217 126.857C255.627 126.564 255.996 126.254 256.324 125.926C256.359 126.324 256.412 126.711 256.482 127.086C256.564 127.449 256.67 127.754 256.799 128ZM251.051 125.521C250.418 125.521 249.861 125.439 249.381 125.275C248.9 125.111 248.502 124.883 248.186 124.59C247.869 124.309 247.629 123.969 247.465 123.57C247.312 123.172 247.236 122.738 247.236 122.27C247.236 121.777 247.324 121.338 247.5 120.951C247.688 120.564 247.957 120.23 248.309 119.949C248.801 119.551 249.463 119.258 250.295 119.07C251.139 118.871 252.123 118.771 253.248 118.771H256.271V122.621C256.084 122.996 255.826 123.359 255.498 123.711C255.17 124.051 254.783 124.355 254.338 124.625C253.881 124.895 253.377 125.111 252.826 125.275C252.275 125.439 251.684 125.521 251.051 125.521ZM265.324 118.332V118.701C265.324 120.061 265.5 121.332 265.852 122.516C266.203 123.688 266.707 124.707 267.363 125.574C268.008 126.441 268.799 127.121 269.736 127.613C270.674 128.105 271.723 128.352 272.883 128.352C273.574 128.352 274.219 128.275 274.816 128.123C275.414 127.982 275.959 127.777 276.451 127.508C276.768 127.332 277.061 127.127 277.33 126.893C277.611 126.658 277.875 126.4 278.121 126.119V127.754C278.121 128.574 278.004 129.301 277.77 129.934C277.535 130.566 277.201 131.094 276.768 131.516C276.322 131.949 275.789 132.277 275.168 132.5C274.547 132.723 273.85 132.834 273.076 132.834C272.643 132.834 272.209 132.787 271.775 132.693C271.342 132.611 270.908 132.471 270.475 132.271C270.041 132.072 269.613 131.803 269.191 131.463C268.77 131.135 268.359 130.73 267.961 130.25L266.273 132.201C266.707 132.822 267.223 133.344 267.82 133.766C268.43 134.188 269.062 134.521 269.719 134.768C270.363 135.025 271.002 135.207 271.635 135.312C272.268 135.43 272.83 135.488 273.322 135.488C274.518 135.488 275.607 135.312 276.592 134.961C277.576 134.609 278.426 134.094 279.141 133.414C279.844 132.734 280.389 131.908 280.775 130.936C281.174 129.963 281.373 128.85 281.373 127.596V108.98H278.42L278.262 111.055C278.039 110.773 277.799 110.516 277.541 110.281C277.295 110.047 277.031 109.842 276.75 109.666C276.234 109.326 275.654 109.068 275.01 108.893C274.377 108.717 273.68 108.629 272.918 108.629C271.734 108.629 270.674 108.869 269.736 109.35C268.799 109.83 268.002 110.498 267.346 111.354C266.689 112.209 266.186 113.234 265.834 114.43C265.494 115.613 265.324 116.914 265.324 118.332ZM268.576 118.701V118.332C268.576 117.406 268.67 116.527 268.857 115.695C269.057 114.852 269.367 114.107 269.789 113.463C270.199 112.83 270.727 112.326 271.371 111.951C272.027 111.576 272.812 111.389 273.727 111.389C274.266 111.389 274.758 111.459 275.203 111.6C275.648 111.729 276.053 111.91 276.416 112.145C276.779 112.391 277.102 112.678 277.383 113.006C277.664 113.334 277.91 113.697 278.121 114.096V122.814C277.91 123.225 277.664 123.6 277.383 123.939C277.102 124.279 276.785 124.572 276.434 124.818C276.07 125.064 275.66 125.258 275.203 125.398C274.758 125.527 274.254 125.592 273.691 125.592C272.789 125.592 272.016 125.41 271.371 125.047C270.727 124.672 270.199 124.168 269.789 123.535C269.367 122.902 269.057 122.17 268.857 121.338C268.67 120.506 268.576 119.627 268.576 118.701ZM288.053 108.98V111.811H294.521V125.188H288.053V128H303.979V125.188H297.773V108.98H288.053ZM294.1 103.988C294.1 104.516 294.258 104.955 294.574 105.307C294.902 105.658 295.395 105.834 296.051 105.834C296.695 105.834 297.182 105.658 297.51 105.307C297.838 104.955 298.002 104.516 298.002 103.988C298.002 103.695 297.955 103.426 297.861 103.18C297.768 102.934 297.627 102.729 297.439 102.564C297.287 102.412 297.094 102.295 296.859 102.213C296.625 102.119 296.355 102.072 296.051 102.072C295.746 102.072 295.471 102.119 295.225 102.213C294.99 102.295 294.797 102.412 294.645 102.564C294.457 102.74 294.316 102.951 294.223 103.197C294.141 103.443 294.1 103.707 294.1 103.988ZM308.549 118.332V118.701C308.549 120.061 308.73 121.332 309.094 122.516C309.457 123.688 309.967 124.707 310.623 125.574C311.279 126.441 312.07 127.121 312.996 127.613C313.934 128.105 314.977 128.352 316.125 128.352C317.297 128.352 318.322 128.152 319.201 127.754C320.08 127.355 320.836 126.77 321.469 125.996L321.609 128H324.598V101H321.346V110.861C320.725 110.135 319.986 109.584 319.131 109.209C318.287 108.822 317.297 108.629 316.16 108.629C315 108.629 313.951 108.869 313.014 109.35C312.076 109.83 311.279 110.498 310.623 111.354C309.955 112.209 309.439 113.234 309.076 114.43C308.725 115.613 308.549 116.914 308.549 118.332ZM311.801 118.701V118.332C311.801 117.406 311.9 116.527 312.1 115.695C312.299 114.852 312.609 114.107 313.031 113.463C313.441 112.83 313.969 112.326 314.613 111.951C315.27 111.576 316.055 111.389 316.969 111.389C318.035 111.389 318.926 111.641 319.641 112.145C320.355 112.637 320.924 113.27 321.346 114.043V122.867C320.924 123.699 320.355 124.361 319.641 124.854C318.926 125.346 318.023 125.592 316.934 125.592C316.031 125.592 315.258 125.41 314.613 125.047C313.969 124.672 313.441 124.168 313.031 123.535C312.609 122.902 312.299 122.17 312.1 121.338C311.9 120.506 311.801 119.627 311.801 118.701ZM343.283 128H346.676V127.719C346.465 127.191 346.301 126.576 346.184 125.873C346.066 125.158 346.008 124.484 346.008 123.852V115.01C346.008 113.943 345.814 113.012 345.428 112.215C345.041 111.418 344.514 110.75 343.846 110.211C343.166 109.684 342.363 109.291 341.438 109.033C340.512 108.764 339.51 108.629 338.432 108.629C337.248 108.629 336.188 108.793 335.25 109.121C334.324 109.449 333.539 109.877 332.895 110.404C332.238 110.943 331.734 111.547 331.383 112.215C331.043 112.883 330.867 113.562 330.855 114.254H334.125C334.125 113.855 334.219 113.475 334.406 113.111C334.605 112.736 334.881 112.414 335.232 112.145C335.584 111.875 336.012 111.658 336.516 111.494C337.031 111.33 337.611 111.248 338.256 111.248C338.947 111.248 339.568 111.336 340.119 111.512C340.682 111.688 341.156 111.934 341.543 112.25C341.93 112.578 342.229 112.971 342.439 113.428C342.65 113.885 342.756 114.4 342.756 114.975V116.469H339.205C337.881 116.469 336.68 116.598 335.602 116.855C334.535 117.113 333.621 117.5 332.859 118.016C332.098 118.543 331.506 119.199 331.084 119.984C330.674 120.77 330.469 121.684 330.469 122.727C330.469 123.523 330.621 124.268 330.926 124.959C331.242 125.639 331.688 126.225 332.262 126.717C332.824 127.221 333.51 127.619 334.318 127.912C335.139 128.205 336.053 128.352 337.061 128.352C337.682 128.352 338.268 128.287 338.818 128.158C339.369 128.029 339.891 127.854 340.383 127.631C340.863 127.408 341.303 127.15 341.701 126.857C342.111 126.564 342.48 126.254 342.809 125.926C342.844 126.324 342.896 126.711 342.967 127.086C343.049 127.449 343.154 127.754 343.283 128ZM337.535 125.521C336.902 125.521 336.346 125.439 335.865 125.275C335.385 125.111 334.986 124.883 334.67 124.59C334.354 124.309 334.113 123.969 333.949 123.57C333.797 123.172 333.721 122.738 333.721 122.27C333.721 121.777 333.809 121.338 333.984 120.951C334.172 120.564 334.441 120.23 334.793 119.949C335.285 119.551 335.947 119.258 336.779 119.07C337.623 118.871 338.607 118.771 339.732 118.771H342.756V122.621C342.568 122.996 342.311 123.359 341.982 123.711C341.654 124.051 341.268 124.355 340.822 124.625C340.365 124.895 339.861 125.111 339.311 125.275C338.76 125.439 338.168 125.521 337.535 125.521ZM364.869 108.629C363.486 108.629 362.25 108.934 361.16 109.543C360.082 110.141 359.156 110.961 358.383 112.004L358.365 111.529L358.225 108.98H355.131V128H358.4V115.801C358.611 115.215 358.875 114.688 359.191 114.219C359.52 113.738 359.9 113.334 360.334 113.006C360.814 112.631 361.377 112.35 362.021 112.162C362.666 111.963 363.387 111.863 364.184 111.863C364.805 111.863 365.396 111.898 365.959 111.969C366.533 112.027 367.137 112.127 367.77 112.268L368.209 109.086C367.881 108.945 367.389 108.834 366.732 108.752C366.088 108.67 365.467 108.629 364.869 108.629ZM382.43 128.352C384.281 128.352 385.834 127.982 387.088 127.244C388.354 126.494 389.303 125.639 389.936 124.678L387.949 123.131C387.352 123.904 386.602 124.525 385.699 124.994C384.797 125.463 383.766 125.697 382.605 125.697C381.727 125.697 380.924 125.533 380.197 125.205C379.471 124.877 378.85 124.426 378.334 123.852C377.83 123.312 377.432 122.691 377.139 121.988C376.857 121.285 376.676 120.471 376.594 119.545V119.422H390.182V117.963C390.182 116.639 390.012 115.408 389.672 114.271C389.344 113.135 388.84 112.145 388.16 111.301C387.48 110.469 386.625 109.818 385.594 109.35C384.574 108.869 383.379 108.629 382.008 108.629C380.918 108.629 379.852 108.852 378.809 109.297C377.777 109.742 376.857 110.381 376.049 111.213C375.229 112.057 374.572 113.088 374.08 114.307C373.588 115.514 373.342 116.885 373.342 118.42V119.158C373.342 120.482 373.564 121.707 374.01 122.832C374.455 123.957 375.076 124.93 375.873 125.75C376.67 126.57 377.625 127.209 378.738 127.666C379.863 128.123 381.094 128.352 382.43 128.352ZM382.008 111.301C382.84 111.301 383.555 111.453 384.152 111.758C384.762 112.062 385.266 112.461 385.664 112.953C386.062 113.445 386.373 114.031 386.596 114.711C386.818 115.379 386.93 116.006 386.93 116.592V116.75H376.699C376.828 115.871 377.051 115.098 377.367 114.43C377.695 113.75 378.094 113.176 378.562 112.707C379.031 112.25 379.559 111.904 380.145 111.67C380.73 111.424 381.352 111.301 382.008 111.301Z" fill="#212121"/>
</svg>
